# xmcd
#
# Track frame offsets: 
#        150
#        20178
#        33896
#        59083
#        79428
#        91591
#        116126
#        131477
#        152426
#        186585
#        207924
#
# Disc length: 3206 seconds
#
# Revision: 2
# Processed by: cddbd v1.5.2PL0 Copyright (c) Steve Scherf et al.
# Submitted via: ExactAudioCopyFreeDBPlugin 1.0
#
DISCID=980c840b
DTITLE=Nicole Willis - Tortured Soul
DYEAR=2013
DGENRE=Soul
TTITLE0=Light Years Ahead
TTITLE1=Break Free (Shake a Tail Feather)
TTITLE2=On the East Side
TTITLE3=Best Days of Our Lives
TTITLE4=Time to Get Business Straight
TTITLE5=Delete My Number
TTITLE6=I’ll Just Sit and Daydream
TTITLE7=Tell Me When (We Can Start Our Love Thing Once Again)
TTITLE8=It’s All Because of You
TTITLE9=Now I Can Fly
TTITLE10=You Got Me Moonwalking
EXTD=
EXTT0=
EXTT1=
EXTT2=
EXTT3=
EXTT4=
EXTT5=
EXTT6=
EXTT7=
EXTT8=
EXTT9=
EXTT10=
PLAYORDER=
